# File created by Blade
# Date/Time:  Thu Jan 22 19:18:16 2015
# Frame Rate: 120.000 fps
#------------------------------------------------------
:FULLY-SPECIFIED
:DEGREES
989
root -0.708877 31.648288 -7.403137 83.569384 26.016958 -10.010235
RightUpLeg -82.729388 -3.773762 14.220712
RightLeg -4.372319 -0.000000 0.000000
RightFoot -4.509839 -6.870217 16.185019
RightToeBase 7.117637 -0.000000 -0.000000
LeftUpLeg -97.393780 29.075907 24.852112
LeftLeg 4.512951 -0.000000 -0.000000
LeftFoot 5.033606 1.555222 -26.727654
LeftToeBase 7.434275 -0.000000 -0.000000
Spine 41.102344 14.312174 -23.247354
RightShoulder -3.715370 27.761625 -50.486327
RightArm 83.443294 19.001675 45.314445
RightForeArm -26.847457 -0.000000 34.779551
RightHand 12.119274 -0.000000 2.579224
RightHandThumb1 -24.326973 -0.000000 -32.862282
LeftShoulder 0.998872 -25.029554 29.738382
LeftArm 42.354120 -27.296511 -60.496158
LeftForeArm -28.630490 -0.000000 64.656226
LeftHand -8.231674 0.000000 -16.121853
LeftHandThumb1 -26.253704 0.000000 33.147579
Head -44.819252 1.775919 -24.314098
990
root -0.718938 31.648302 -7.393631 83.574129 26.022636 -10.049641
RightUpLeg -82.748418 -3.718867 14.311643
RightLeg -4.344507 -0.000000 0.000000
RightFoot -4.511959 -6.804278 16.121256
RightToeBase 7.113915 -0.000000 -0.000000
LeftUpLeg -97.393840 29.127826 24.821165
LeftLeg 4.492131 -0.000000 -0.000000
LeftFoot 5.038960 1.543511 -26.688276
LeftToeBase 7.374011 -0.000000 -0.000000
Spine 41.118547 14.298280 -23.294348
RightShoulder -3.697991 27.750462 -50.436753
RightArm 83.518949 19.092724 45.305089
RightForeArm -26.786660 -0.000000 34.802828
RightHand 12.147786 -0.000000 2.544152
RightHandThumb1 -24.326973 -0.000000 -32.862282
LeftShoulder 0.967366 -24.880148 29.721650
LeftArm 42.498831 -27.509542 -60.617449
LeftForeArm -28.541584 0.000000 64.809719
LeftHand -8.313448 0.000000 -16.099051
LeftHandThumb1 -26.253704 0.000000 33.147579
Head -44.742317 1.733701 -24.324364
991
root -0.728775 31.647791 -7.383719 83.568899 26.053277 -10.089194
RightUpLeg -82.756409 -3.673378 14.498768
RightLeg -4.320310 -0.000000 0.000000
RightFoot -4.512168 -6.671797 16.076843
RightToeBase 7.089609 -0.000000 -0.000000
LeftUpLeg -97.383407 29.176399 24.835763
LeftLeg 4.478127 -0.000000 -0.000000
LeftFoot 5.036110 1.548049 -26.682693
LeftToeBase 7.353401 -0.000000 -0.000000
Spine 41.165580 14.245114 -23.289999
RightShoulder -3.727685 27.770946 -50.489283
RightArm 83.620408 19.135067 45.381880
RightForeArm -26.728122 0.000000 34.807886
RightHand 12.134187 -0.000000 2.497170
RightHandThumb1 -24.326973 -0.000000 -32.862282
LeftShoulder 0.910483 -24.795507 29.634909
LeftArm 42.579768 -27.683007 -60.644043
LeftForeArm -28.448907 -0.000000 64.953252
LeftHand -8.390078 0.000000 -16.096793
LeftHandThumb1 -26.253704 0.000000 33.147579
Head -44.705175 1.657882 -24.436238
992
root -0.736528 31.647785 -7.374014 83.571783 26.050423 -10.119702
RightUpLeg -82.784788 -3.634798 14.655192
RightLeg -4.270079 -0.000000 0.000000
RightFoot -4.506510 -6.539973 15.979754
RightToeBase 7.100213 -0.000000 -0.000000
LeftUpLeg -97.362067 29.227862 24.860529
LeftLeg 4.485488 -0.000000 -0.000000
LeftFoot 5.009169 1.553409 -26.729863
LeftToeBase 7.366300 -0.000000 -0.000000
Spine 41.205414 14.205484 -23.322227
RightShoulder -3.727483 27.766717 -50.481189
RightArm 83.735886 19.208755 45.407257
RightForeArm -26.673980 -0.000000 34.793915
RightHand 12.162415 -0.000000 2.456023
RightHandThumb1 -24.326973 -0.000000 -32.862282
LeftShoulder 0.883073 -24.760085 29.578367
LeftArm 42.584037 -27.849234 -60.656512
LeftForeArm -28.405947 -0.000000 65.104635
LeftHand -8.471791 -0.000000 -16.094450
LeftHandThumb1 -26.253704 0.000000 33.147579
Head -44.641108 1.612327 -24.541978
